<svg xmlns="http://www.w3.org/2000/svg" width="1600" height="715" viewBox="0 180 1600 715"><title>LLM 策略与环境反馈</title>
<rect x="0" y="0" width="1600" height="1000" rx="0" fill="#F7F9FA" stroke="none" stroke-width="1.4"/>
<rect x="550" y="212" width="500" height="125" rx="16" fill="#F2EDF8" stroke="#C8D5DC" stroke-width="1.4"/>
<rect x="550" y="212" width="5" height="125" rx="2" fill="#7356A4" stroke="none" stroke-width="1.4"/>
<text x="574" y="254" fill="#7356A4" font-family="Heiti SC, PingFang SC, Noto Sans CJK SC, sans-serif" font-size="32" font-weight="600" text-anchor="start">Context</text>
<text x="574" y="292" fill="#607584" font-family="Heiti SC, PingFang SC, Noto Sans CJK SC, sans-serif" font-size="24" font-weight="400" text-anchor="start">上下文</text>
<rect x="130" y="485" width="550" height="165" rx="16" fill="#EDF3FA" stroke="#C8D5DC" stroke-width="1.4"/>
<rect x="130" y="485" width="5" height="165" rx="2" fill="#3466A0" stroke="none" stroke-width="1.4"/>
<text x="154" y="527" fill="#3466A0" font-family="Heiti SC, PingFang SC, Noto Sans CJK SC, sans-serif" font-size="31" font-weight="600" text-anchor="start">LLM-based Policy</text>
<text x="154" y="565" fill="#607584" font-family="Heiti SC, PingFang SC, Noto Sans CJK SC, sans-serif" font-size="25" font-weight="400" text-anchor="start">基于语言模型的策略</text>
<rect x="920" y="485" width="550" height="165" rx="16" fill="#E9F5F3" stroke="#C8D5DC" stroke-width="1.4"/>
<rect x="920" y="485" width="5" height="165" rx="2" fill="#087F82" stroke="none" stroke-width="1.4"/>
<text x="944" y="527" fill="#087F82" font-family="Heiti SC, PingFang SC, Noto Sans CJK SC, sans-serif" font-size="32" font-weight="600" text-anchor="start">Environment</text>
<text x="944" y="565" fill="#607584" font-family="Heiti SC, PingFang SC, Noto Sans CJK SC, sans-serif" font-size="25" font-weight="400" text-anchor="start">游戏环境</text>
<polyline points="625,337 405,465" fill="none" stroke="#7356A4" stroke-width="2.5" stroke-linejoin="round"/>
<polygon points="405,465 419.2538898600437,463.64847350830894 413.2191669204001,453.27629345579646" fill="#7356A4" stroke="none"/>
<polyline points="975,337 1195,465" fill="none" stroke="#7356A4" stroke-width="2.5" stroke-linejoin="round"/>
<polygon points="1195,465 1186.7808330796001,453.27629345579646 1180.7461101399563,463.64847350830894" fill="#7356A4" stroke="none"/>
<polyline points="680,533 900,533" fill="none" stroke="#3466A0" stroke-width="2.5" stroke-linejoin="round"/>
<polygon points="900,533 887.0,527.0 887.0,539.0" fill="#3466A0" stroke="none"/>
<text x="800" y="511" fill="#3466A0" font-family="Heiti SC, PingFang SC, Noto Sans CJK SC, sans-serif" font-size="22" font-weight="400" text-anchor="middle">Action / 行动</text>
<polyline points="920,615 700,615" fill="none" stroke="#087F82" stroke-width="2.5" stroke-linejoin="round"/>
<polygon points="700,615 713.0,621.0 713.0,609.0" fill="#087F82" stroke="none"/>
<text x="800" y="600" fill="#087F82" font-family="Heiti SC, PingFang SC, Noto Sans CJK SC, sans-serif" font-size="22" font-weight="400" text-anchor="middle">Reward / 反馈</text>
<rect x="64" y="737" width="472" height="134" rx="16" fill="#FFFFFF" stroke="#C8D5DC" stroke-width="1.4"/>
<rect x="64" y="737" width="5" height="134" rx="2" fill="#A9691C" stroke="none" stroke-width="1.4"/>
<text x="88" y="779" fill="#A9691C" font-family="Heiti SC, PingFang SC, Noto Sans CJK SC, sans-serif" font-size="27" font-weight="600" text-anchor="start">自由度 ↔ 可控体验</text>
<text x="88" y="817" fill="#607584" font-family="Heiti SC, PingFang SC, Noto Sans CJK SC, sans-serif" font-size="22" font-weight="400" text-anchor="start">开放行为与稳定体验之间的取舍。</text>
<rect x="564" y="737" width="472" height="134" rx="16" fill="#FFFFFF" stroke="#C8D5DC" stroke-width="1.4"/>
<rect x="564" y="737" width="5" height="134" rx="2" fill="#A9691C" stroke="none" stroke-width="1.4"/>
<text x="588" y="779" fill="#A9691C" font-family="Heiti SC, PingFang SC, Noto Sans CJK SC, sans-serif" font-size="27" font-weight="600" text-anchor="start">模型智力 ↔ 成本</text>
<text x="588" y="817" fill="#607584" font-family="Heiti SC, PingFang SC, Noto Sans CJK SC, sans-serif" font-size="22" font-weight="400" text-anchor="start">推理能力与部署开销之间的取舍。</text>
<rect x="1064" y="737" width="472" height="134" rx="16" fill="#FFFFFF" stroke="#C8D5DC" stroke-width="1.4"/>
<rect x="1064" y="737" width="5" height="134" rx="2" fill="#A9691C" stroke="none" stroke-width="1.4"/>
<text x="1088" y="779" fill="#A9691C" font-family="Heiti SC, PingFang SC, Noto Sans CJK SC, sans-serif" font-size="27" font-weight="600" text-anchor="start">缩短推理路径</text>
<text x="1088" y="817" fill="#607584" font-family="Heiti SC, PingFang SC, Noto Sans CJK SC, sans-serif" font-size="22" font-weight="400" text-anchor="start">原页同时列为技术挑战。</text>
</svg>